<svg width="188" height="45" viewBox="0 0 188 45" fill="none" xmlns="http://www.w3.org/2000/svg">
<path fill-rule="evenodd" clip-rule="evenodd" d="M59.867 37.011V44.747H39.051V0H59.867V7.67H46.667V18.474H57.202V26.144H46.667V37.01L59.867 37.011ZM81.213 44.747V37.011L70.616 37.01V0H63V44.747H81.213ZM187.743 44.747V37.011H174.542V26.144H185.077V18.474H174.542V7.671H187.743V0H166.927V44.747H187.743ZM162.502 0.001H154.951L148.158 21.606L141.367 0.001H133.815V44.748H141.432V22.758L144.414 34.136H151.839L154.886 22.758V44.748H162.502V0.001ZM123.042 7.671H117.519V37.011H123.043L123.042 7.671ZM130.722 4.732C130.722 2.11 128.564 0.001 126.024 0.001L114.6 0.002C112 0.002 109.904 2.111 109.904 4.732V40.017C109.904 42.574 112 44.747 114.6 44.747H126.024C128.564 44.747 130.722 42.574 130.722 40.017V4.732ZM98.014 28.253L105.692 26.463V40.015C105.692 42.572 103.535 44.745 100.996 44.745H89.571C86.971 44.745 84.876 42.572 84.876 40.015V4.731C84.876 2.109 86.971 0.001 89.571 0.001H100.994C103.534 0.001 105.691 2.109 105.691 4.731V13.808L98.013 15.598V7.67H92.491V37.01H98.013L98.014 28.253ZM35.284 0.001H27.607L27.037 37.011H26.275L21.387 0.001H13.835L9.075 37.011H8.251L7.616 0.001H0L1.142 44.747H15.675L17.642 26.273L19.61 44.747H34.08L35.284 0.001Z" fill="#81B3D3"/>
</svg>
